<svg width="132" height="37" viewBox="0 0 132 37" fill="none" xmlns="http://www.w3.org/2000/svg">
<path d="M26.374 0.276152C25.3346 0.671353 24.4252 1.33002 23.7756 2.25216C23.5157 2.51563 23.3858 2.64736 23.2559 2.91083C23.2559 3.04256 23.126 3.1743 23.126 3.30603C22.9961 3.5695 22.9961 3.70123 22.8661 3.9647V4.09643C22.2165 6.46764 10.7835 10.1562 8.5748 8.97058L8.44488 8.83885C6.36614 6.86284 3.11811 6.99457 1.29921 9.10231C0.519685 10.0245 0.129921 11.2101 0 12.2639C0 12.5274 0 12.7909 0 13.0543C0 13.1861 0 13.4495 0.129921 13.5813C0.129921 13.713 0.129921 13.713 0.129921 13.8447C0.129921 13.9765 0.129921 14.1082 0.259843 14.2399C1.16929 17.0063 4.02756 18.4554 6.62598 17.5333C6.75591 17.5333 6.75591 17.4015 6.88583 17.4015C9.35433 17.4015 16.7598 24.12 17.7992 27.0181C17.6693 27.2816 17.6693 27.4133 17.5394 27.6768C16.8898 30.4432 18.5787 33.2096 21.3071 33.8683C21.8268 34 22.4764 34 22.9961 34C22.9961 34 22.9961 34 23.126 34C23.2559 34 23.3858 34 23.5157 34C24.685 33.8683 25.7244 33.3413 26.6339 32.4192C28.5827 30.3115 28.3228 27.0181 26.2441 25.1738C26.1142 25.0421 26.1142 25.0421 25.9843 24.9104C25.0748 21.617 27.6732 10.9466 29.8819 10.0245C31.1811 9.49752 32.3504 8.31191 32.7402 6.73111C32.7402 6.59937 32.7402 6.59937 32.8701 6.46764C32.8701 6.46764 32.8701 6.46764 32.8701 6.33591V6.20417C32.8701 5.9407 33 5.67724 33 5.41377C33 4.88683 33 4.22817 32.7402 3.70123C31.8307 0.803087 28.9724 -0.645984 26.374 0.276152ZM21.3071 23.8565C18.4488 23.4613 11.0433 16.7429 10.2638 13.8447C12.0827 11.4735 21.9567 8.31191 24.5551 9.23405C25.9843 11.2101 23.3858 22.4074 21.3071 23.8565Z" fill="white"/>
<path d="M13.42 9.02V22H6.798C5.654 21.9707 4.59067 21.6627 3.608 21.076C2.64 20.4893 1.87 19.7047 1.298 18.722C0.726 17.7247 0.44 16.654 0.44 15.51C0.44 14.3367 0.726 13.2513 1.298 12.254C1.88467 11.2567 2.67667 10.4647 3.674 9.878C4.67133 9.306 5.75667 9.02 6.93 9.02C7.64867 9.02 8.338 9.13 8.998 9.35C9.67267 9.57 10.2813 9.88533 10.824 10.296V9.02H13.42ZM10.824 15.51C10.824 14.9967 10.7213 14.5053 10.516 14.036C10.3253 13.552 10.0467 13.1267 9.68 12.76C9.31333 12.3933 8.888 12.1147 8.404 11.924C7.93467 11.7187 7.44333 11.616 6.93 11.616C5.90333 11.616 4.98667 11.9973 4.18 12.76C3.81333 13.1267 3.53467 13.552 3.344 14.036C3.15333 14.5053 3.058 14.9967 3.058 15.51C3.058 16.5513 3.432 17.468 4.18 18.26C4.972 19.008 5.88867 19.382 6.93 19.382H10.824V15.51ZM31.9777 2.75V22H25.3557C24.2264 21.9707 23.1777 21.6553 22.2097 21.054C21.2417 20.438 20.4717 19.6167 19.8997 18.59C19.3277 17.5927 19.0417 16.5147 19.0417 15.356C19.0417 14.1827 19.3277 13.1047 19.8997 12.122C20.4864 11.1247 21.2784 10.3327 22.2757 9.746C23.273 9.174 24.351 8.888 25.5097 8.888C26.2137 8.888 26.8957 9.00533 27.5557 9.24C28.2304 9.46 28.839 9.77533 29.3817 10.186V2.75H31.9777ZM29.3817 19.404V15.356C29.3817 14.8427 29.279 14.3513 29.0737 13.882C28.883 13.4127 28.6044 12.9947 28.2377 12.628C27.871 12.2613 27.453 11.9827 26.9837 11.792C26.5144 11.5867 26.023 11.484 25.5097 11.484C24.9964 11.484 24.505 11.5867 24.0357 11.792C23.5664 11.9827 23.1484 12.2613 22.7817 12.628C22.415 12.9947 22.129 13.4127 21.9237 13.882C21.733 14.3513 21.6377 14.8427 21.6377 15.356C21.6377 15.8987 21.7404 16.434 21.9457 16.962C22.151 17.4753 22.4297 17.908 22.7817 18.26C23.1484 18.6267 23.5664 18.9127 24.0357 19.118C24.505 19.3087 24.9964 19.404 25.5097 19.404H29.3817ZM50.5364 9.02V22H43.9144C42.7704 21.9707 41.7071 21.6627 40.7244 21.076C39.7564 20.4893 38.9864 19.7047 38.4144 18.722C37.8424 17.7247 37.5564 16.654 37.5564 15.51C37.5564 14.3367 37.8424 13.2513 38.4144 12.254C39.0011 11.2567 39.7931 10.4647 40.7904 9.878C41.7877 9.306 42.8731 9.02 44.0464 9.02C44.7651 9.02 45.4544 9.13 46.1144 9.35C46.7891 9.57 47.3977 9.88533 47.9404 10.296V9.02H50.5364ZM47.9404 15.51C47.9404 14.9967 47.8377 14.5053 47.6324 14.036C47.4417 13.552 47.1631 13.1267 46.7964 12.76C46.4297 12.3933 46.0044 12.1147 45.5204 11.924C45.0511 11.7187 44.5597 11.616 44.0464 11.616C43.0197 11.616 42.1031 11.9973 41.2964 12.76C40.9297 13.1267 40.6511 13.552 40.4604 14.036C40.2697 14.5053 40.1744 14.9967 40.1744 15.51C40.1744 16.5513 40.5484 17.468 41.2964 18.26C42.0884 19.008 43.0051 19.382 44.0464 19.382H47.9404V15.51ZM72.9881 21.978H70.3701V15.51C70.3701 14.982 70.2674 14.4833 70.0621 14.014C69.8714 13.5447 69.5928 13.1267 69.2261 12.76C68.8594 12.3933 68.4341 12.1147 67.9501 11.924C67.4808 11.7187 66.9894 11.616 66.4761 11.616H65.8381V21.978H63.2421V11.616H58.8641V22H56.2461V9.02H66.4761C67.6494 9.02 68.7348 9.31333 69.7321 9.9C70.7294 10.472 71.5214 11.2567 72.1081 12.254C72.6948 13.2367 72.9881 14.322 72.9881 15.51V21.978Z" transform="translate(40 3)" fill="white"/>
</svg>
