<?xml version="1.0" encoding="utf-8"?>
<!-- Generator: Adobe Illustrator 22.1.0, SVG Export Plug-In . SVG Version: 6.00 Build 0)  -->
<svg version="1.1" baseProfile="tiny" id="Ebene_1" xmlns="http://www.w3.org/2000/svg" xmlns:xlink="http://www.w3.org/1999/xlink"
	 x="0px" y="0px" viewBox="0 0 200 200" xml:space="preserve">
<g>
	<path fill="#39FFC4" d="M89.2,170c-1.3,0-2.5-0.8-2.9-2c-0.7-1.6,0.1-3.5,1.8-4.1c9.7-3.9,42-18.7,52.4-47.5
		c0.6-1.6,2.4-2.5,4.1-1.9c1.6,0.6,2.5,2.4,1.9,4.1c-11.3,31.2-45.8,47.1-56.1,51.2C90,170,89.6,170,89.2,170z"/>
</g>
<g>
	<path fill="#39FFC4" d="M149.8,102.8c-0.2,0-0.4,0-0.5,0c-1.7-0.3-2.9-1.9-2.6-3.7c3.7-21.3-0.7-37.4-12.5-46.6
		c-11.3-8.8-28.5-10.1-43.7-3.3c-1.6,0.7-3.5,0-4.2-1.6c-0.7-1.6,0-3.5,1.6-4.2c17.4-7.7,37.1-6.1,50.2,4.1
		c9.6,7.5,20,22.7,14.8,52.7C152.7,101.7,151.3,102.8,149.8,102.8z"/>
</g>
<g>
	<path fill="#39FFC4" d="M93.5,107C93.5,107,93.5,107,93.5,107c-14.1-0.2-24-7.5-27.4-20C62.4,73,67.8,56.1,78,49.9
		c1.5-0.9,3.4-0.4,4.4,1.1c0.9,1.5,0.4,3.5-1.1,4.4c-7.7,4.6-12,18.9-9.1,29.9c1.9,6.9,7.1,15.2,21.3,15.3c1.8,0,3.2,1.5,3.1,3.2
		C96.7,105.6,95.3,107,93.5,107z"/>
</g>
<g>
	<path fill="#39FFC4" d="M103,105.5c-1.3,0-2.5-0.8-3-2.1c-0.6-1.7,0.3-3.5,2-4c9.2-3.2,13.8-8.8,12.7-15.3
		c-0.9-5.1-5.1-9.1-9.6-9.1c-1.8,0-3.2-1.4-3.2-3.2c0-1.8,1.4-3.2,3.2-3.2c7.5,0,14.5,6.3,15.9,14.4c1.3,7.5-2.5,17.4-16.9,22.4
		C103.7,105.4,103.3,105.5,103,105.5z"/>
</g>
<g>
	<path fill="#39FFC4" d="M52.5,168.5c-1.4,0-2.7-1-3.1-2.4c-0.4-1.7,0.6-3.4,2.3-3.8c55.9-14,88-44.9,83.7-80.7
		c-0.2-1.7,1-3.3,2.8-3.5c1.7-0.2,3.3,1,3.5,2.8c4.7,39.2-29.2,72.8-88.5,87.6C53,168.5,52.8,168.5,52.5,168.5z"/>
</g>
<g>
	<path fill="#39FFC4" d="M136.3,73.9c-1.2,0-2.4-0.7-2.9-1.9c-1.6-3.6-4-6.4-7.3-8.3c-1.5-0.9-2-2.9-1.1-4.4s2.9-2,4.4-1.1
		c4.4,2.7,7.7,6.4,9.8,11.2c0.7,1.6,0,3.5-1.6,4.2C137.2,73.8,136.8,73.9,136.3,73.9z"/>
</g>
<g>
	<path fill="#39FFC4" d="M93.9,93.8c-2.5,0-5-0.6-7.2-1.8c-5.9-3.2-8.5-9.8-6.9-17.8c1.4-7.2,6.5-14.1,13.3-18
		c5.4-3.1,14.5-5.9,27.2-1.6c1.7,0.6,2.5,2.4,2,4c-0.6,1.7-2.4,2.5-4,2c-8.2-2.8-15.8-2.5-21.9,1.1C90,65.3,86.8,71.2,86,75.5
		c-1,5.2,0.3,9.1,3.7,10.9c3.2,1.7,7.7,1.2,10-1.1c1.2-1.2,3.2-1.2,4.5,0c1.2,1.2,1.2,3.2,0,4.5C101.5,92.4,97.7,93.8,93.9,93.8z"/>
</g>
<g>
	<path fill="#39FFC4" d="M45.3,157.7c-1.5,0-2.8-1.1-3.1-2.6c-0.3-1.7,0.8-3.4,2.5-3.7c16.9-3.3,35.6-12.1,45.9-18.9
		c1.5-1,3.4-0.6,4.4,0.9c1,1.5,0.6,3.4-0.9,4.4c-8.3,5.5-27.8,16-48.2,19.9C45.7,157.7,45.5,157.7,45.3,157.7z"/>
</g>
<g>
	<path fill="#39FFC4" d="M93.8,126.7c-3.1,0-6.3-0.4-9.6-1.2c-18.9-4.5-33.1-20.8-33.1-38c0-1.8,1.4-3.2,3.2-3.2
		c1.8,0,3.2,1.4,3.2,3.2c0,14.3,12.1,28,28.2,31.8c15,3.5,28.3-2.9,35.6-17.4c0.8-1.6,2.7-2.2,4.3-1.4c1.6,0.8,2.2,2.7,1.4,4.3
		C119.9,118.9,107.9,126.7,93.8,126.7z"/>
</g>
<g>
	<path fill="#39FFC4" d="M162.2,84.4c-1.8,0-3.2-1.4-3.2-3.2c0-35.1-22.3-50.8-44.4-50.8c-1.8,0-3.2-1.4-3.2-3.2s1.4-3.2,3.2-3.2
		c24.4,0,50.8,17.9,50.8,57.1C165.3,83,163.9,84.4,162.2,84.4z"/>
</g>
<g>
	<path fill="#39FFC4" d="M54.3,74.9c-1.8,0-3.2-1.4-3.2-3.2c0-24.9,24.2-47.6,50.8-47.6c1.8,0,3.2,1.4,3.2,3.2s-1.4,3.2-3.2,3.2
		c-22.8,0-44.4,20-44.4,41.2C57.5,73.4,56.1,74.9,54.3,74.9z"/>
</g>
<g>
</g>
<g>
</g>
<g>
</g>
<g>
</g>
<g>
</g>
<g>
</g>
<g>
</g>
<g>
</g>
<g>
</g>
<g>
</g>
<g>
</g>
<g>
</g>
<g>
</g>
<g>
</g>
<g>
</g>
</svg>
