<svg width="136" height="11" viewBox="0 0 136 11" fill="none" xmlns="http://www.w3.org/2000/svg">
<path d="M1.428 10.034C1.33 10.622 1.778 11.084 2.324 11.084C2.828 11.084 3.15 10.72 3.22 10.342L3.472 8.9H5.362L5.166 10.034C5.068 10.566 5.516 11.084 6.062 11.084C6.51 11.084 6.888 10.776 6.958 10.342L7.21 8.9H8.008C8.498 8.9 8.904 8.494 8.904 8.004C8.904 7.514 8.498 7.108 8.008 7.108H7.518L7.868 5.036H8.498C8.988 5.036 9.394 4.63 9.394 4.14C9.394 3.65 8.988 3.244 8.498 3.244H8.176L8.358 2.166C8.442 1.634 8.008 1.116 7.462 1.116C7.014 1.116 6.636 1.41 6.566 1.858L6.328 3.244H4.438L4.62 2.166C4.704 1.634 4.27 1.116 3.724 1.116C3.276 1.116 2.898 1.41 2.828 1.858L2.59 3.244H1.792C1.302 3.244 0.896 3.65 0.896 4.14C0.896 4.63 1.302 5.036 1.792 5.036H2.282L1.932 7.108H1.302C0.812 7.108 0.406 7.514 0.406 8.004C0.406 8.494 0.812 8.9 1.302 8.9H1.624L1.428 10.034ZM3.78 7.108L4.13 5.036H6.02L5.67 7.108H3.78ZM12.6447 9.978C12.6447 10.622 13.1347 11 13.8067 11H19.1267C19.6447 11 20.0647 10.594 20.0647 10.076C20.0647 9.558 19.6447 9.138 19.1267 9.138H15.7107L17.3067 7.906C19.0427 6.562 19.8827 5.75 19.8827 4.112V4.084C19.8827 2.25 18.5387 1.06 16.5087 1.06C15.0247 1.06 14.1007 1.592 13.3167 2.502C13.1627 2.684 13.0647 2.936 13.0647 3.174C13.0647 3.72 13.4987 4.154 14.0447 4.154C14.3807 4.154 14.6327 4 14.7727 3.846C15.3187 3.258 15.7527 2.992 16.3687 2.992C17.1387 2.992 17.6847 3.44 17.6847 4.266C17.6847 5.078 17.2087 5.624 15.9907 6.618L13.2047 8.9C12.8407 9.194 12.6447 9.558 12.6447 9.978ZM27.3594 11.168C29.5434 11.168 30.8874 9.81 30.8874 7.962V7.934C30.8874 6.114 29.5854 5.414 28.2554 5.19L30.1734 3.356C30.5654 2.978 30.8174 2.684 30.8174 2.152C30.8174 1.564 30.3554 1.2 29.7254 1.2H24.9514C24.4474 1.2 24.0274 1.62 24.0274 2.124C24.0274 2.628 24.4474 3.048 24.9514 3.048H27.9614L26.0574 4.966C25.7214 5.302 25.5954 5.554 25.5954 5.848C25.5954 6.352 26.0154 6.772 26.5194 6.772H26.8554C28.0594 6.772 28.7734 7.22 28.7734 8.018V8.046C28.7734 8.774 28.1994 9.236 27.3874 9.236C26.6174 9.236 26.0294 8.984 25.4694 8.508C25.3014 8.368 25.0914 8.242 24.7834 8.242C24.2234 8.242 23.7474 8.718 23.7474 9.278C23.7474 9.586 23.9154 9.88 24.1114 10.048C24.9094 10.734 25.9594 11.168 27.3594 11.168ZM38.6867 11.168C40.8147 11.168 42.4247 9.782 42.4247 7.78V7.752C42.4247 5.708 40.9267 4.63 38.9807 4.63C38.0147 4.63 37.4407 4.938 36.9507 5.26C37.0907 3.972 37.7067 2.992 38.9247 2.992C39.5127 2.992 39.9187 3.132 40.3667 3.384C40.5207 3.468 40.7167 3.538 40.8987 3.538C41.4587 3.538 41.9207 3.104 41.9207 2.544C41.9207 2.11 41.6967 1.816 41.3607 1.62C40.7727 1.27 39.9747 1.032 38.9947 1.032C36.0687 1.032 34.6967 3.356 34.6967 6.38V6.408C34.6967 8.354 35.1447 9.404 35.8587 10.118C36.5447 10.804 37.4127 11.168 38.6867 11.168ZM38.6027 9.32C37.5387 9.32 36.8947 8.69 36.8947 7.864V7.836C36.8947 7.01 37.5107 6.422 38.5747 6.422C39.6387 6.422 40.2827 7.024 40.2827 7.85V7.878C40.2827 8.718 39.6667 9.32 38.6027 9.32ZM46.0522 9.978C46.0522 10.622 46.5422 11 47.2142 11H52.5342C53.0522 11 53.4722 10.594 53.4722 10.076C53.4722 9.558 53.0522 9.138 52.5342 9.138H49.1182L50.7142 7.906C52.4502 6.562 53.2902 5.75 53.2902 4.112V4.084C53.2902 2.25 51.9462 1.06 49.9162 1.06C48.4322 1.06 47.5082 1.592 46.7242 2.502C46.5702 2.684 46.4722 2.936 46.4722 3.174C46.4722 3.72 46.9062 4.154 47.4522 4.154C47.7882 4.154 48.0402 4 48.1802 3.846C48.7262 3.258 49.1602 2.992 49.7762 2.992C50.5462 2.992 51.0922 3.44 51.0922 4.266C51.0922 5.078 50.6162 5.624 49.3982 6.618L46.6122 8.9C46.2482 9.194 46.0522 9.558 46.0522 9.978ZM57.5889 9.922C57.5889 10.524 58.0649 11 58.6669 11H61.4109C64.4909 11 66.6189 8.858 66.6189 6.1V6.072C66.6189 3.314 64.4909 1.2 61.4109 1.2H58.6669C58.0649 1.2 57.5889 1.676 57.5889 2.278V9.922ZM59.7449 9.054V3.146H61.4109C63.1749 3.146 64.3649 4.364 64.3649 6.1V6.128C64.3649 7.864 63.1749 9.054 61.4109 9.054H59.7449ZM70.7935 11H77.2195C77.7375 11 78.1715 10.58 78.1715 10.062C78.1715 9.544 77.7375 9.11 77.2195 9.11H72.6975L77.7795 3.202C78.0315 2.894 78.1715 2.572 78.1715 2.194V2.152C78.1715 1.634 77.7375 1.2 77.2195 1.2H70.9615C70.4435 1.2 70.0095 1.634 70.0095 2.152C70.0095 2.67 70.4435 3.09 70.9615 3.09H75.3155L70.2335 8.998C69.9815 9.292 69.8415 9.628 69.8415 10.006V10.048C69.8415 10.566 70.2755 11 70.7935 11ZM81.7976 9.978C81.7976 10.622 82.2876 11 82.9596 11H88.2796C88.7976 11 89.2176 10.594 89.2176 10.076C89.2176 9.558 88.7976 9.138 88.2796 9.138H84.8636L86.4596 7.906C88.1956 6.562 89.0356 5.75 89.0356 4.112V4.084C89.0356 2.25 87.6916 1.06 85.6616 1.06C84.1776 1.06 83.2536 1.592 82.4696 2.502C82.3156 2.684 82.2176 2.936 82.2176 3.174C82.2176 3.72 82.6516 4.154 83.1976 4.154C83.5336 4.154 83.7856 4 83.9256 3.846C84.4716 3.258 84.9056 2.992 85.5216 2.992C86.2916 2.992 86.8376 3.44 86.8376 4.266C86.8376 5.078 86.3616 5.624 85.1436 6.618L82.3576 8.9C81.9936 9.194 81.7976 9.558 81.7976 9.978ZM96.5123 11.168C98.6963 11.168 100.04 9.81 100.04 7.962V7.934C100.04 6.114 98.7383 5.414 97.4083 5.19L99.3263 3.356C99.7183 2.978 99.9703 2.684 99.9703 2.152C99.9703 1.564 99.5083 1.2 98.8783 1.2H94.1043C93.6003 1.2 93.1803 1.62 93.1803 2.124C93.1803 2.628 93.6003 3.048 94.1043 3.048H97.1143L95.2103 4.966C94.8743 5.302 94.7483 5.554 94.7483 5.848C94.7483 6.352 95.1683 6.772 95.6723 6.772H96.0083C97.2123 6.772 97.9263 7.22 97.9263 8.018V8.046C97.9263 8.774 97.3523 9.236 96.5403 9.236C95.7703 9.236 95.1823 8.984 94.6223 8.508C94.4543 8.368 94.2443 8.242 93.9363 8.242C93.3763 8.242 92.9003 8.718 92.9003 9.278C92.9003 9.586 93.0683 9.88 93.2643 10.048C94.0623 10.734 95.1123 11.168 96.5123 11.168ZM106.552 10.006C106.552 10.608 107.028 11.084 107.63 11.084C108.232 11.084 108.708 10.608 108.708 10.006V3.188H110.78C111.326 3.188 111.774 2.74 111.774 2.194C111.774 1.648 111.326 1.2 110.78 1.2H104.48C103.934 1.2 103.486 1.648 103.486 2.194C103.486 2.74 103.934 3.188 104.48 3.188H106.552V10.006ZM115.588 9.922C115.588 10.524 116.064 11 116.666 11H119.41C122.49 11 124.618 8.858 124.618 6.1V6.072C124.618 3.314 122.49 1.2 119.41 1.2H116.666C116.064 1.2 115.588 1.676 115.588 2.278V9.922ZM117.744 9.054V3.146H119.41C121.174 3.146 122.364 4.364 122.364 6.1V6.128C122.364 7.864 121.174 9.054 119.41 9.054H117.744ZM129.325 10.118C129.325 10.734 129.857 11.084 130.431 11.084C130.851 11.084 131.187 10.874 131.467 10.356L135.401 3.216C135.583 2.88 135.709 2.488 135.709 2.166C135.709 1.55 135.331 1.2 134.729 1.2H129.409C128.891 1.2 128.471 1.62 128.471 2.138C128.471 2.656 128.891 3.062 129.409 3.062H133.161L129.521 9.446C129.409 9.642 129.325 9.936 129.325 10.118Z" transform="translate(0 -1)" fill="#39FFC4"/>
</svg>
