<svg width="38" height="38" viewBox="0 0 38 38" fill="none" xmlns="http://www.w3.org/2000/svg">
<circle cx="19" cy="19" r="18" stroke="#39FFC4" stroke-width="2"/>
<path d="M20.7971 1.17769C20.7342 0.863636 21.1896 0.261708 21.4252 0C30.7838 3.45455 32.7048 13.2686 32.4954 17.7438H31.3962C31.0822 18.0579 30.3599 18.686 29.983 18.686C29.6061 18.686 29.826 20.7796 29.983 21.8264C29.6689 21.2507 29.0094 19.9736 28.8838 19.4711C28.7582 18.9686 27.7847 18.7383 27.3136 18.686L23.6235 17.7438H21.1896L19.6194 18.3719C19.4885 18.9477 19.6194 20.5388 21.1896 22.2975C22.1318 22.062 21.9747 22.5331 22.3673 21.8264C22.6813 21.2612 22.7599 23.1088 22.7599 24.1033L22.3673 25.6736C21.8439 26.2493 20.7971 27.4793 20.7971 27.7934C20.7971 28.186 19.9334 28.5 19.2268 29.2066C18.5202 29.9132 18.3632 29.2066 18.3632 28.5V26.8512V25.6736V23.6322C18.3632 22.9413 17.7351 23.0826 17.421 23.2397V24.8884C17.0546 25.2287 16.2433 25.9248 15.9293 25.9876C15.6152 26.0504 16.0601 26.5895 16.3219 26.8512C16.0863 27.1653 15.6152 27.9347 15.6152 28.5C15.6152 29.2066 15.9293 29.5207 15.9293 30.4628C15.9293 31.405 16.3219 31.4835 15.9293 32.1116C15.6152 32.6141 16.0601 33.4201 16.3219 33.7603L15.6152 35.0165L12.8673 35.4091L10.669 34.3884C10.5119 34.1791 10.1979 33.5876 10.1979 32.8967C10.1979 32.0331 10.1979 31.1694 9.72681 30.8554C9.25574 30.5413 8.15656 30.6198 8.15656 29.5207C8.15656 28.4215 6.19375 28.2645 5.87969 27.7934C5.56563 27.3223 3.91689 27.7934 2.97475 27.7934C2.0326 27.7934 2.03258 28.186 1.64002 27.7934C1.24746 27.4008 0.933425 26.8512 0.462334 26.3802C-0.00875771 25.9091 0.0697888 24.8884 0.0697888 24.1033C0.0697888 23.3182 -0.087236 22.5331 0.0697888 22.5331C0.195409 22.5331 0.697888 21.8003 0.933425 21.4339C1.4045 21.1983 2.40946 20.6017 2.6607 20.0992C2.97475 19.4711 2.97475 19.5496 3.60285 19.4711C4.10533 19.4083 4.8067 19.8636 5.09458 20.0992C5.82736 20.3085 7.46566 20.7273 8.15656 20.7273C9.02019 20.7273 9.72681 20.7273 10.669 21.8264C11.4227 22.7058 11.7158 22.1928 11.7681 21.8264C12.1345 21.6956 12.9929 21.5124 13.4954 21.8264C14.1235 22.219 14.8301 22.219 15.2227 22.5331C15.5367 22.7843 16.5574 22.1667 17.0285 21.8264L17.421 20.7273C17.7351 20.2562 18.3632 19.1884 18.3632 18.686C18.3632 18.0579 17.8921 18.3719 17.421 17.7438V16.8017L16.3219 16.2521C15.9555 16.1212 15.3012 15.938 15.6152 16.2521C16.0078 16.6446 15.9293 16.8017 15.9293 17.3512C15.9293 17.7909 15.1965 18.2149 14.8301 18.3719V16.8017V16.2521C14.6469 16.1212 14.2805 15.6554 14.2805 14.8388C14.2805 14.5248 13.3384 14.0799 12.8673 13.8967H11.2185L12.0822 15.8595L12.8673 16.8017L13.888 17.3512L12.8673 18.3719L11.2185 18.686C11.2185 18.4504 11.3913 17.9322 12.0822 17.7438C12.9458 17.5083 11.2185 16.8017 11.2185 16.2521C11.2185 15.8124 10.8522 15.8072 10.669 15.8595L9.72681 15.2314C9.20339 15.2576 8.15656 15.2157 8.15656 14.8388C8.15656 14.3678 7.764 15.4669 7.29293 15.8595C6.91607 16.1736 6.82185 15.9904 6.82185 15.8595L6.19375 16.8017L5.09458 17.3512H3.91689C3.36731 17.3512 3.21028 16.2521 2.97475 15.8595C2.78632 15.5455 3.52433 15.0482 3.91689 14.8388L5.48714 13.8967C5.64417 13.7135 6.00532 13.3157 6.19375 13.1901C6.42929 13.0331 6.82185 12.3264 6.82185 11.9339C6.82185 11.5413 6.5078 11.3058 6.82185 11.4628C7.1359 11.6198 7.84251 10.5992 8.15656 10.5992H9.0202H9.72681H11.2185C11.3494 10.3375 11.7053 9.75124 12.0822 9.5C12.459 9.24876 13.1814 9.08127 13.4954 9.02893V8.2438L12.8673 7.38017L12.0822 8.2438L11.2185 9.02893C10.8783 9.10744 10.1979 9.21736 10.1979 9.02893V8.63636L10.669 7.77273V6.67355L10.1979 7.38017C9.70064 7.40634 8.59623 7.44298 8.15656 7.38017C7.71689 7.31736 8.54912 6.41185 9.0202 5.96694L9.72681 4.71074C9.83149 4.47521 10.0723 3.90992 10.1979 3.53306C10.3235 3.1562 10.5643 2.90496 10.669 2.82645L12.8673 2.19835H15.2227L16.3219 2.82645H17.0285L18.3632 2.19835H19.6194C20.0381 1.98898 20.8599 1.49174 20.7971 1.17769Z" transform="translate(4.95508 2.43408)" fill="#39FFC4"/>
<path d="M5.09458 7.38017C5.09458 6.68926 5.35629 6.62121 5.48714 6.67355L5.87969 7.77273L6.19375 8.63636V9.97108C5.95822 10.0234 5.40863 10.0967 5.09458 9.97108C4.70202 9.81405 4.702 9.02893 5.09458 8.63636C5.48716 8.2438 5.09458 8.2438 5.09458 7.38017Z" transform="translate(4.95508 2.43408)" fill="#39FFC4"/>
<path d="M17.0285 32.1116C16.7144 31.4835 17.1593 31.0124 17.421 30.8554L18.6772 32.1116L17.8136 32.5826C17.6827 32.6873 17.3425 32.7397 17.0285 32.1116Z" transform="translate(4.95508 2.43408)" fill="#39FFC4"/>
</svg>
